<?xml version="1.0" standalone="no"?>
<!DOCTYPE svg PUBLIC "-//W3C//DTD SVG 20010904//EN"
 "http://www.w3.org/TR/2001/REC-SVG-20010904/DTD/svg10.dtd">
<svg version="1.0" xmlns="http://www.w3.org/2000/svg"
 width="512.000000pt" height="512.000000pt" viewBox="0 0 512.000000 512.000000"
 preserveAspectRatio="xMidYMid meet">

<g transform="translate(0.000000,512.000000) scale(0.100000,-0.100000)"
fill="#fff" stroke="none">
<path d="M361 5109 c-212 -42 -376 -256 -358 -470 19 -221 188 -396 403 -416
l63 -6 117 -296 c65 -163 125 -315 135 -339 l18 -42 -53 -30 c-68 -38 -176
-137 -228 -208 -49 -66 -110 -194 -135 -282 -17 -61 -18 -122 -18 -945 0 -877
0 -880 23 -982 55 -250 152 -447 311 -630 164 -190 395 -338 636 -408 191 -56
156 -55 2013 -55 1898 0 1756 -5 1805 64 20 28 22 42 21 136 -5 298 -169 605
-426 797 l-89 67 69 70 c248 256 402 588 441 948 14 123 14 395 1 513 -37 333
-165 652 -362 903 -433 553 -1121 810 -1798 672 -480 -98 -918 -417 -1181
-862 -29 -48 -55 -88 -58 -88 -3 0 -19 23 -36 51 -40 67 -178 197 -249 235
-31 16 -56 33 -56 38 0 6 59 160 132 343 l131 333 37 0 c57 0 150 28 208 63
255 153 296 492 86 703 -175 175 -453 174 -629 -1 -168 -168 -177 -435 -22
-611 l39 -45 -31 -82 c-17 -45 -80 -206 -140 -357 -87 -218 -113 -276 -129
-278 -19 -3 -55 81 -290 681 -15 38 -15 38 20 75 48 51 84 116 102 187 83 317
-200 618 -523 554z m154 -309 c109 -53 112 -208 4 -262 -44 -23 -95 -23 -139
1 -39 20 -80 83 -80 123 0 59 39 119 95 144 42 19 72 17 120 -6z m1200 0 c109
-53 112 -208 4 -262 -44 -23 -95 -23 -139 1 -39 20 -80 83 -80 123 0 59 39
119 95 144 42 19 72 17 120 -6z m1760 -900 c685 -78 1227 -601 1330 -1285 19
-129 20 -419 0 -545 -45 -298 -172 -548 -384 -760 -393 -391 -978 -510 -1426
-291 -317 155 -523 435 -580 785 -18 107 -20 428 -4 526 41 257 205 488 426
599 110 56 196 76 323 75 132 0 206 -16 317 -69 95 -45 146 -80 216 -152 157
-160 217 -323 217 -587 0 -166 -18 -225 -90 -296 -125 -126 -332 -116 -440 22
-54 67 -70 128 -70 261 0 94 -3 115 -22 148 -41 74 -143 99 -207 51 -58 -43
-66 -65 -69 -195 -6 -226 43 -365 177 -497 188 -187 440 -231 680 -119 66 31
99 54 161 116 136 137 180 259 180 502 0 300 -62 501 -217 706 -341 450 -985
546 -1435 214 -153 -114 -301 -304 -374 -482 -62 -153 -75 -233 -81 -497 -6
-261 6 -385 53 -548 26 -91 93 -241 144 -324 l30 -48 -68 0 c-136 0 -237 42
-332 140 -63 64 -103 139 -120 227 -19 94 -7 922 14 1033 35 180 74 296 153
454 286 572 883 905 1498 836z m-2322 -605 c152 -39 258 -133 323 -285 18 -43
19 -84 25 -765 6 -774 4 -743 59 -875 73 -174 237 -336 406 -404 112 -45 196
-56 427 -56 l214 0 44 -33 c227 -170 523 -267 814 -267 177 0 395 38 555 96
75 27 254 111 292 139 19 12 26 11 72 -12 124 -62 239 -166 315 -283 39 -61
101 -204 101 -235 0 -14 -165 -15 -1657 -12 l-1658 2 -80 22 c-420 113 -727
451 -790 870 -22 146 -22 1648 0 1741 24 99 62 171 129 238 116 116 259 158
409 119z"/>
<path d="M995 2996 c-42 -18 -83 -69 -91 -112 -9 -47 19 -118 58 -145 41 -30
106 -36 152 -14 111 53 112 211 1 265 -48 23 -78 25 -120 6z"/>
</g>
</svg>
